<svg xmlns="http://www.w3.org/2000/svg" width="1003" height="575"><rect width="1003" height="575" x="0" y="0" fill="#ffffff" id="background"/><g transform="translate(50,10)" id="viz"><g id="axis"><g transform="translate(0,515)" fill="none" font-size="10" font-family="sans-serif" text-anchor="middle"><path class="domain" stroke="currentColor" d="M0,6V0H703V6"/><g class="tick" opacity="1" transform="translate(0,0)"><line stroke="currentColor" y2="6"/><text fill="currentColor" y="9" dy="0.71em">1995</text></g><g class="tick" opacity="1" transform="translate(63.86137381781982,0)"><line stroke="currentColor" y2="6"/><text fill="currentColor" y="9" dy="0.71em">1996</text></g><g class="tick" opacity="1" transform="translate(127.89771030363364,0)"><line stroke="currentColor" y2="6"/><text fill="currentColor" y="9" dy="0.71em">1997</text></g><g class="tick" opacity="1" transform="translate(191.75908412145344,0)"><line stroke="currentColor" y2="6"/><text fill="currentColor" y="9" dy="0.71em">1998</text></g><g class="tick" opacity="1" transform="translate(255.62045793927325,0)"><line stroke="currentColor" y2="6"/><text fill="currentColor" y="9" dy="0.71em">1999</text></g><g class="tick" opacity="1" transform="translate(319.4818317570931,0)"><line stroke="currentColor" y2="6"/><text fill="currentColor" y="9" dy="0.71em">2000</text></g><g class="tick" opacity="1" transform="translate(383.5181682429069,0)"><line stroke="currentColor" y2="6"/><text fill="currentColor" y="9" dy="0.71em">2001</text></g><g class="tick" opacity="1" transform="translate(447.37954206072675,0)"><line stroke="currentColor" y2="6"/><text fill="currentColor" y="9" dy="0.71em">2002</text></g><g class="tick" opacity="1" transform="translate(511.2409158785465,0)"><line stroke="currentColor" y2="6"/><text fill="currentColor" y="9" dy="0.71em">2003</text></g><g class="tick" opacity="1" transform="translate(575.1022896963664,0)"><line stroke="currentColor" y2="6"/><text fill="currentColor" y="9" dy="0.71em">2004</text></g><g class="tick" opacity="1" transform="translate(639.1386261821801,0)"><line stroke="currentColor" y2="6"/><text fill="currentColor" y="9" dy="0.71em">2005</text></g><g class="tick" opacity="1" transform="translate(703,0)"><line stroke="currentColor" y2="6"/><text fill="currentColor" y="9" dy="0.71em">2006</text></g><text x="703" dy="-5" text-anchor="end" style="font-family: Arial, sans-serif; font-size: 12px; fill: rgb(123, 123, 123); font-weight: bold;">fnac</text></g><g fill="none" font-size="10" font-family="sans-serif" text-anchor="end"><path class="domain" stroke="currentColor" d="M0,0V515"/><g class="tick" opacity="1" transform="translate(0,66)"><line stroke="currentColor" x2="703" style="stroke: rgb(204, 204, 204);"/><text fill="currentColor" x="-3" dy="0.32em">A22</text></g><g class="tick" opacity="1" transform="translate(0,194)"><line stroke="currentColor" x2="703" style="stroke: rgb(204, 204, 204);"/><text fill="currentColor" x="-3" dy="0.32em">IN23</text></g><g class="tick" opacity="1" transform="translate(0,322)"><line stroke="currentColor" x2="703" style="stroke: rgb(204, 204, 204);"/><text fill="currentColor" x="-3" dy="0.32em">L20</text></g><g class="tick" opacity="1" transform="translate(0,450)"><line stroke="currentColor" x2="703" style="stroke: rgb(204, 204, 204);"/><text fill="currentColor" x="-3" dy="0.32em">S10-Rev23</text></g><text x="4" text-anchor="start" dominant-baseline="hanging" style="font-family: Arial, sans-serif; font-size: 12px; fill: rgb(123, 123, 123); font-weight: bold;">plan</text></g></g><g id="visualization"><g id="A22"><g id="circles"><circle id="" cx="549.5577401692384" cy="66" r="6" style="fill: rgb(31, 119, 180);"/><circle id="" cx="572.65281234445" cy="66" r="6" style="fill: rgb(31, 119, 180);"/><circle id="" cx="618.8429566948731" cy="66" r="6" style="fill: rgb(31, 119, 180);"/><circle id="" cx="244.77277252364362" cy="66" r="6" style="fill: rgb(31, 119, 180);"/><circle id="" cx="653.2246142359384" cy="66" r="6" style="fill: rgb(31, 119, 180);"/><circle id="" cx="639.2246142359382" cy="66" r="6" style="fill: rgb(255, 127, 14);"/></g><g id="labels"><g id="" transform="translate(549.5577401692384,66)"><text x="0" y="0" text-anchor="middle" dominant-baseline="text-before-edge" transform="translate(0,0)"/></g><g id="" transform="translate(572.65281234445,66)"><text x="0" y="0" text-anchor="middle" dominant-baseline="text-before-edge" transform="translate(0,0)"/></g><g id="" transform="translate(618.8429566948731,66)"><text x="0" y="0" text-anchor="middle" dominant-baseline="text-before-edge" transform="translate(0,0)"/></g><g id="" transform="translate(244.77277252364362,66)"><text x="0" y="0" text-anchor="middle" dominant-baseline="text-before-edge" transform="translate(0,0)"/></g><g id="" transform="translate(653.2246142359384,66)"><text x="0" y="0" text-anchor="middle" dominant-baseline="text-before-edge" transform="translate(0,0)"/></g><g id="" transform="translate(639.2246142359382,66)"><text x="0" y="0" text-anchor="middle" dominant-baseline="text-before-edge" transform="translate(0,0)"/></g></g></g><g id="IN23"><g id="circles"><circle id="" cx="449.2561009894906" cy="194" r="6" style="fill: rgb(214, 39, 40);"/><circle id="" cx="491.2557208124008" cy="194" r="6" style="fill: rgb(214, 39, 40);"/><circle id="" cx="477.2559109009457" cy="194" r="6" style="fill: rgb(44, 160, 44);"/><circle id="" cx="463.2559109009457" cy="194" r="6" style="fill: rgb(44, 160, 44);"/></g><g id="labels"><g id="" transform="translate(449.2561009894906,194)"><text x="0" y="0" text-anchor="middle" dominant-baseline="text-before-edge" transform="translate(0,0)"/></g><g id="" transform="translate(491.2557208124008,194)"><text x="0" y="0" text-anchor="middle" dominant-baseline="text-before-edge" transform="translate(0,0)"/></g><g id="" transform="translate(477.2559109009457,194)"><text x="0" y="0" text-anchor="middle" dominant-baseline="text-before-edge" transform="translate(0,0)"/></g><g id="" transform="translate(463.2559109009457,194)"><text x="0" y="0" text-anchor="middle" dominant-baseline="text-before-edge" transform="translate(0,0)"/></g></g></g><g id="L20"><g id="circles"><circle id="" cx="453.3282727725237" cy="322" r="6" style="fill: rgb(31, 119, 180);"/><circle id="" cx="589.9187303416822" cy="322" r="6" style="fill: rgb(31, 119, 180);"/><circle id="" cx="561.9188080496676" cy="322" r="6" style="fill: rgb(31, 119, 180);"/><circle id="" cx="575.9188080496676" cy="322" r="6" style="fill: rgb(31, 119, 180);"/><circle id="" cx="547.108262817322" cy="322" r="6" style="fill: rgb(31, 119, 180);"/><circle id="" cx="253.87083125933302" cy="322" r="6" style="fill: rgb(31, 119, 180);"/><circle id="" cx="425.3342458934793" cy="322" r="6" style="fill: rgb(31, 119, 180);"/><circle id="" cx="370.2210054753609" cy="322" r="6" style="fill: rgb(31, 119, 180);"/></g><g id="labels"><g id="" transform="translate(453.3282727725237,322)"><text x="0" y="0" text-anchor="middle" dominant-baseline="text-before-edge" transform="translate(0,0)"/></g><g id="" transform="translate(589.9187303416822,322)"><text x="0" y="0" text-anchor="middle" dominant-baseline="text-before-edge" transform="translate(0,0)"/></g><g id="" transform="translate(561.9188080496676,322)"><text x="0" y="0" text-anchor="middle" dominant-baseline="text-before-edge" transform="translate(0,0)"/></g><g id="" transform="translate(575.9188080496676,322)"><text x="0" y="0" text-anchor="middle" dominant-baseline="text-before-edge" transform="translate(0,0)"/></g><g id="" transform="translate(547.108262817322,322)"><text x="0" y="0" text-anchor="middle" dominant-baseline="text-before-edge" transform="translate(0,0)"/></g><g id="" transform="translate(253.87083125933302,322)"><text x="0" y="0" text-anchor="middle" dominant-baseline="text-before-edge" transform="translate(0,0)"/></g><g id="" transform="translate(425.3342458934793,322)"><text x="0" y="0" text-anchor="middle" dominant-baseline="text-before-edge" transform="translate(0,0)"/></g><g id="" transform="translate(370.2210054753609,322)"><text x="0" y="0" text-anchor="middle" dominant-baseline="text-before-edge" transform="translate(0,0)"/></g></g></g><g id="S10-Rev23"><g id="circles"><circle id="" cx="463.82603285216527" cy="450" r="6" style="fill: rgb(31, 119, 180);"/><circle id="" cx="301.86260399071523" cy="442.4611977204579" r="6" style="fill: rgb(31, 119, 180);"/><circle id="" cx="58.262568442010945" cy="450" r="6" style="fill: rgb(31, 119, 180);"/><circle id="" cx="329.8123265987068" cy="444.12396232535224" r="6" style="fill: rgb(31, 119, 180);"/><circle id="" cx="322.10554441836075" cy="455.8121356700828" r="6" style="fill: rgb(31, 119, 180);"/><circle id="" cx="308.13029216748396" cy="454.98062986864693" r="6" style="fill: rgb(31, 119, 180);"/><circle id="" cx="315.83729484965573" cy="443.29320696369047" r="6" style="fill: rgb(31, 119, 180);"/><circle id="" cx="401.53932304629166" cy="450" r="6" style="fill: rgb(31, 119, 180);"/><circle id="" cx="294.1551839325615" cy="454.1485016512989" r="6" style="fill: rgb(31, 119, 180);"/><circle id="" cx="338.4001388110571" cy="455.1803658004715" r="6" style="fill: rgb(31, 119, 180);"/></g><g id="labels"><g id="" transform="translate(463.82603285216527,450)"><text x="0" y="0" text-anchor="middle" dominant-baseline="text-before-edge" transform="translate(0,0)"/></g><g id="" transform="translate(301.86260399071523,442.4611977204579)"><text x="0" y="0" text-anchor="middle" dominant-baseline="text-before-edge" transform="translate(0,0)"/></g><g id="" transform="translate(58.262568442010945,450)"><text x="0" y="0" text-anchor="middle" dominant-baseline="text-before-edge" transform="translate(0,0)"/></g><g id="" transform="translate(329.8123265987068,444.12396232535224)"><text x="0" y="0" text-anchor="middle" dominant-baseline="text-before-edge" transform="translate(0,0)"/></g><g id="" transform="translate(322.10554441836075,455.8121356700828)"><text x="0" y="0" text-anchor="middle" dominant-baseline="text-before-edge" transform="translate(0,0)"/></g><g id="" transform="translate(308.13029216748396,454.98062986864693)"><text x="0" y="0" text-anchor="middle" dominant-baseline="text-before-edge" transform="translate(0,0)"/></g><g id="" transform="translate(315.83729484965573,443.29320696369047)"><text x="0" y="0" text-anchor="middle" dominant-baseline="text-before-edge" transform="translate(0,0)"/></g><g id="" transform="translate(401.53932304629166,450)"><text x="0" y="0" text-anchor="middle" dominant-baseline="text-before-edge" transform="translate(0,0)"/></g><g id="" transform="translate(294.1551839325615,454.1485016512989)"><text x="0" y="0" text-anchor="middle" dominant-baseline="text-before-edge" transform="translate(0,0)"/></g><g id="" transform="translate(338.4001388110571,455.1803658004715)"><text x="0" y="0" text-anchor="middle" dominant-baseline="text-before-edge" transform="translate(0,0)"/></g></g></g></g></g><g id="legend" transform="translate(803,10)"><g transform="translate(5,0)"><g class="legendSize" transform="translate(0,0)"><g class="legendCells" transform="translate(6,16)"><g class="cell" transform="translate(0, 6)"><circle class="swatch" r="6" fill="none" stroke="#ccc"/><text class="label" transform="translate( 11,&#10;          5)" font-family="&quot;Arial&quot;, sans-serif" font-size="10px"><tspan x="0" dy="0em">1.0</tspan></text></g><g class="cell" transform="translate(0, 32)"><circle class="swatch" r="6" fill="none" stroke="#ccc"/><text class="label" transform="translate( 11,&#10;          5)" font-family="&quot;Arial&quot;, sans-serif" font-size="10px"><tspan x="0" dy="0em">1.0</tspan></text></g></g><text class="legendTitle" font-family="&quot;Arial&quot;, sans-serif" font-size="12px" font-weight="bold"><tspan x="0" dy="0em">Number of records</tspan></text></g><g class="legendColor" transform="translate(0,89)"><g class="legendCells" transform="translate(0,16)"><g class="cell" transform="translate(0, 0)"><rect class="swatch" height="15" width="15" style="fill: rgb(31, 119, 180);"/><text class="label" transform="translate( 20, 12.5)" font-family="&quot;Arial&quot;, sans-serif" font-size="10px"><tspan x="0" dy="0em">Argentina</tspan></text></g><g class="cell" transform="translate(0, 21)"><rect class="swatch" height="15" width="15" style="fill: rgb(255, 127, 14);"/><text class="label" transform="translate( 20, 12.5)" font-family="&quot;Arial&quot;, sans-serif" font-size="10px"><tspan x="0" dy="0em">Estados Unidos</tspan></text></g><g class="cell" transform="translate(0, 42)"><rect class="swatch" height="15" width="15" style="fill: rgb(44, 160, 44);"/><text class="label" transform="translate( 20, 12.5)" font-family="&quot;Arial&quot;, sans-serif" font-size="10px"><tspan x="0" dy="0em">Francia</tspan></text></g><g class="cell" transform="translate(0, 63)"><rect class="swatch" height="15" width="15" style="fill: rgb(214, 39, 40);"/><text class="label" transform="translate( 20, 12.5)" font-family="&quot;Arial&quot;, sans-serif" font-size="10px"><tspan x="0" dy="0em">Portugal</tspan></text></g></g><text class="legendTitle" font-family="&quot;Arial&quot;, sans-serif" font-size="12px" font-weight="bold"><tspan x="0" dy="0em">nacionalidad</tspan></text></g></g></g></svg>